<?xml version="1.0" encoding="UTF-8" standalone="no"?><!-- Generator: Gravit.io --><svg xmlns="http://www.w3.org/2000/svg" xmlns:xlink="http://www.w3.org/1999/xlink" style="isolation:isolate" viewBox="0 0 512 512" width="512pt" height="512pt"><defs><clipPath id="_clipPath_7CcIq2fKh9C6LlZFXEzMISI8IDdqSQJV"><rect width="512" height="512"/></clipPath></defs><g clip-path="url(#_clipPath_7CcIq2fKh9C6LlZFXEzMISI8IDdqSQJV)"><path d=" M 204.728 251.478 C 209.078 204.167 247.728 167.195 294.8 167.195 C 328.342 167.195 357.584 185.985 373.252 213.922 C 381.85 207.455 392.257 204.484 403.4 204.484 C 433.378 204.484 457.7 229.013 457.7 260.417 C 457.7 267.525 456.399 274.284 454.08 280.576 C 487.113 287.451 512 317.574 512 353.639 C 512 394.831 479.59 428.217 439.6 428.217 L 379.559 428.217 C 378.817 420.557 377.141 413.008 374.56 405.73 C 371.07 395.94 365.98 386.8 359.47 378.69 C 353.05 370.67 345.32 363.79 336.61 358.34 C 332.97 356.07 329.18 354.07 325.26 352.34 C 325.55 349.65 325.7 346.94 325.7 344.23 C 325.72 334.36 323.82 324.57 320.1 315.42 C 316.53 306.66 311.29 298.67 304.68 291.89 C 298.11 285.15 290.28 279.77 281.63 276.05 C 272.72 272.23 263.11 270.26 253.41 270.27 C 249.82 270.26 246.25 270.51 242.7 271.01 C 239.12 271.51 235.59 272.29 232.14 273.34 C 231.15 273.64 230.17 273.96 229.19 274.31 C 226.96 271.48 224.59 268.76 222.09 266.15 C 216.824 260.666 211.007 255.753 204.728 251.478 Z  M 361.453 428.217 L 231.45 428.217 C 186.466 428.217 150 390.636 150 344.317 C 150 310.582 169.314 281.502 197.163 268.17 C 207.781 275.947 216.703 286.027 223.252 297.706 C 231.85 291.238 242.257 288.267 253.4 288.267 C 283.378 288.267 307.7 312.796 307.7 344.2 C 307.7 351.308 306.399 358.067 304.08 364.359 C 334.258 370.64 357.638 396.324 361.453 428.217 Z " fill-rule="evenodd" fill="rgb(0,0,0)"/><path d=" M 54.413 348.92 C 54.34 347.346 54.3 345.773 54.3 344.2 C 54.3 292.695 94.799 250.978 144.8 250.978 C 178.342 250.978 207.584 269.768 223.252 297.706 C 231.85 291.238 242.257 288.267 253.4 288.267 C 283.378 288.267 307.7 312.796 307.7 344.2 C 307.7 351.308 306.399 358.067 304.08 364.359 C 337.112 371.235 362 401.357 362 437.422 C 362 478.615 329.59 512 289.6 512 L 81.45 512 C 36.466 512 0 474.42 0 428.1 C 0 391.51 22.721 360.398 54.413 348.92 Z " fill="rgb(0,0,0)"/></g></svg>