<?xml version="1.0" encoding="UTF-8" standalone="no"?><!-- Generator: Gravit.io --><svg xmlns="http://www.w3.org/2000/svg" xmlns:xlink="http://www.w3.org/1999/xlink" style="isolation:isolate" viewBox="0 0 512 512" width="512pt" height="512pt"><defs><clipPath id="_clipPath_H2PIXIi0ODriWNDlavzTtq9ZbG0dTQ0n"><rect width="512" height="512"/></clipPath></defs><g clip-path="url(#_clipPath_H2PIXIi0ODriWNDlavzTtq9ZbG0dTQ0n)"><g><path d=" M 109.333 168.716 C 109.246 166.873 109.2 165.031 109.2 163.188 C 109.2 102.862 156.635 54 215.2 54 C 254.486 54 288.738 76.008 307.089 108.731 C 317.159 101.156 329.349 97.675 342.4 97.675 C 377.513 97.675 406 126.406 406 163.188 C 406 171.514 404.476 179.43 401.76 186.8 C 440.45 194.853 469.6 230.134 469.6 272.377 C 469.6 320.624 431.639 359.727 384.8 359.727 L 141 359.727 C 88.311 359.727 45.6 315.711 45.6 261.458 C 45.6 218.601 72.213 182.16 109.333 168.716 Z " fill="rgb(0,0,0)"/><line x1="328.2" y1="404" x2="128.2" y2="404" vector-effect="non-scaling-stroke" stroke-width="50" stroke-dasharray="1,90" stroke="rgb(0,0,0)" stroke-linejoin="round" stroke-linecap="round" stroke-miterlimit="3"/><line x1="282.4" y1="458" x2="82.4" y2="458" vector-effect="non-scaling-stroke" stroke-width="50" stroke-dasharray="1,90" stroke="rgb(0,0,0)" stroke-linejoin="round" stroke-linecap="round" stroke-miterlimit="3"/></g></g></svg>